# xmcd CD database file
#
# Track frame offsets:
#	150
#	10310
#	26420
#
# Disc length: 543 seconds
#
# Revision: 0
# Processed by: cddbd v1.4PL0 Copyright (c) Steve Scherf et al.
# Submitted via: CDex 1.50beta10
#
DISCID=17021d03
DTITLE=Gudrun Lange und Kactus - Ich Tanz' Im Regen
DYEAR=1992
DGENRE=Country
TTITLE0=Ich Tanz' Im Regen
TTITLE1=So Lang Ich Dich Noch Fühle
TTITLE2=Auf Silbernen Flügeln
EXTD=YEAR: 1992
EXTT0=
EXTT1=
EXTT2=
PLAYORDER=
